<?xml version="1.0" encoding="UTF-8"?>
<svg width="286px" height="213px" viewBox="0 0 286 213" version="1.1" xmlns="http://www.w3.org/2000/svg" xmlns:xlink="http://www.w3.org/1999/xlink">
    <!-- Generator: Sketch 43.2 (39069) - http://www.bohemiancoding.com/sketch -->
    <title>Group</title>
    <desc>Created with Sketch.</desc>
    <defs></defs>
    <g id="Page-1" stroke="none" stroke-width="1" fill="none" fill-rule="evenodd">
        <g id="1024" transform="translate(-316.000000, -184.000000)" fill="#FFFFFF">
            <g id="Group-2" transform="translate(299.000000, 183.000000)">
                <g id="Group" transform="translate(16.000000, 0.000000)">
                    <rect id="Rectangle-4" transform="translate(118.481710, 190.356385) rotate(45.000000) translate(-118.481710, -190.356385) " x="92.98171" y="180.856385" width="51" height="19" rx="3"></rect>
                    <rect id="Rectangle-4" transform="translate(71.812662, 143.687338) rotate(45.000000) translate(-71.812662, -143.687338) " x="46.3126625" y="134.187338" width="51" height="19" rx="3"></rect>
                    <rect id="Rectangle-4" transform="translate(25.143615, 97.018290) rotate(45.000000) translate(-25.143615, -97.018290) " x="-0.35638508" y="87.51829" width="51" height="19" rx="3"></rect>
                    <rect id="Rectangle-4" transform="translate(142.523341, 166.314755) rotate(45.000000) translate(-142.523341, -166.314755) " x="117.023341" y="156.814755" width="51" height="19" rx="3"></rect>
                    <rect id="Rectangle-4" transform="translate(95.854293, 119.645707) rotate(45.000000) translate(-95.854293, -119.645707) " x="70.354293" y="110.145707" width="51" height="19" rx="3"></rect>
                    <rect id="Rectangle-4" transform="translate(49.185245, 72.976659) rotate(45.000000) translate(-49.185245, -72.976659) " x="23.6852455" y="63.4766594" width="51" height="19" rx="3"></rect>
                    <rect id="Rectangle-4" transform="translate(166.564971, 142.273124) rotate(45.000000) translate(-166.564971, -142.273124) " x="141.064971" y="132.773124" width="51" height="19" rx="3"></rect>
                    <rect id="Rectangle-4" transform="translate(119.895924, 95.604076) rotate(45.000000) translate(-119.895924, -95.604076) " x="94.3959236" y="86.1040764" width="51" height="19" rx="3"></rect>
                    <rect id="Rectangle-4" transform="translate(73.226876, 48.935029) rotate(45.000000) translate(-73.226876, -48.935029) " x="47.726876" y="39.4350288" width="51" height="19" rx="3"></rect>
                    <rect id="Rectangle-4" transform="translate(190.606602, 118.231493) rotate(45.000000) translate(-190.606602, -118.231493) " x="165.106602" y="108.731493" width="51" height="19" rx="3"></rect>
                    <rect id="Rectangle-4" transform="translate(143.937554, 71.562446) rotate(45.000000) translate(-143.937554, -71.562446) " x="118.437554" y="62.0624458" width="51" height="19" rx="3"></rect>
                    <rect id="Rectangle-4" transform="translate(97.268507, 24.893398) rotate(45.000000) translate(-97.268507, -24.893398) " x="71.7685066" y="15.3933983" width="51" height="19" rx="3"></rect>
                    <rect id="Rectangle-4" transform="translate(214.648232, 94.189863) rotate(45.000000) translate(-214.648232, -94.189863) " x="189.148232" y="84.6898628" width="51" height="19" rx="3"></rect>
                    <rect id="Rectangle-4" transform="translate(167.979185, 47.520815) rotate(45.000000) translate(-167.979185, -47.520815) " x="142.479185" y="38.0208153" width="51" height="19" rx="3"></rect>
                    <rect id="Rectangle-4" transform="translate(238.689863, 70.148232) rotate(45.000000) translate(-238.689863, -70.148232) " x="213.189863" y="60.6482323" width="51" height="19" rx="3"></rect>
                    <rect id="Rectangle-4" transform="translate(262.731493, 46.106602) rotate(45.000000) translate(-262.731493, -46.106602) " x="237.231493" y="36.6066017" width="51" height="19" rx="3"></rect>
                </g>
            </g>
        </g>
    </g>
</svg>