<?xml version="1.0" encoding="UTF-8"?>
<svg width="200px" height="116px" viewBox="0 0 200 116" version="1.1" xmlns="http://www.w3.org/2000/svg" xmlns:xlink="http://www.w3.org/1999/xlink">
    <!-- Generator: Sketch 43.2 (39069) - http://www.bohemiancoding.com/sketch -->
    <title>Aspartame</title>
    <desc>Created with Sketch.</desc>
    <defs></defs>
    <g id="print" stroke="none" stroke-width="1" fill="none" fill-rule="evenodd">
        <g id="Aspartame" transform="translate(-335.000000, -115.000000)" fill-rule="nonzero" fill="#FFFFFF">
            <g transform="translate(335.000000, 115.000000)" id="path2462">
                <path d="M82.2345809,115.109215 C82.2345809,114.651104 82.7441596,114.027503 84.4844435,112.355902 C86.0813038,110.822067 86.3413525,110.492545 86.3395965,110.005184 C86.3353126,108.818621 84.630918,108.248647 83.7427894,109.136776 C83.5019645,109.377605 83.3049224,109.698705 83.3049224,109.850333 C83.3049224,110.153255 82.993898,110.206075 82.6168692,109.96718 C82.3321729,109.786785 82.4817162,109.139126 82.9242217,108.636049 C84.4221508,106.933091 87.4637029,108.016612 87.1773925,110.151197 C87.0571663,111.047534 86.4659512,111.814798 84.9076984,113.096718 C84.2223991,113.660492 83.6617029,114.186027 83.6617029,114.264572 C83.6617029,114.343122 84.4644568,114.407388 85.4456009,114.407388 C87.2294989,114.407388 87.2294989,114.407388 87.2294989,114.853361 L87.2294989,115.299335 L84.7320399,115.299335 C83.0832905,115.299335 82.2345809,115.234727 82.2345809,115.109215 Z M23.9534058,112.197459 C22.8175432,111.82612 21.843388,110.95506 21.2792949,109.806337 C20.8380754,108.90784 20.7792772,108.588825 20.7792772,107.093401 C20.7792772,105.596461 20.8378492,105.279424 21.2811885,104.376599 C22.3546563,102.190559 24.5818714,101.272253 27.0351441,102.004169 C28.92549,102.568137 30.0899113,104.220714 30.2694324,106.594341 C30.518306,109.885038 28.7408248,112.1978 25.8269756,112.374639 C25.1679246,112.414634 24.3937694,112.341424 23.9534058,112.197459 Z M27.4215565,110.549357 C28.284439,109.861517 28.7283104,108.954177 28.8480798,107.63333 C29.0317029,105.608315 28.2780355,103.97329 26.8652417,103.331716 C25.0210421,102.494231 22.9575787,103.436346 22.3805898,105.379273 C21.4301552,108.579738 23.0199557,111.321228 25.7268559,111.149645 C26.5370909,111.098288 26.889561,110.973437 27.4215565,110.549357 Z M146.507242,112.197459 C145.371379,111.82612 144.397224,110.95506 143.833126,109.806337 C143.391907,108.90784 143.333109,108.588825 143.333109,107.093401 C143.333109,105.596461 143.391681,105.279424 143.83502,104.376599 C144.908497,102.190559 147.135703,101.272253 149.588976,102.004169 C151.479326,102.568137 152.643747,104.220714 152.823264,106.594341 C153.072142,109.885038 151.294661,112.1978 148.380807,112.374639 C147.721761,112.414634 146.947605,112.341424 146.507242,112.197459 Z M149.975397,110.549357 C150.838275,109.861517 151.282146,108.954177 151.401916,107.63333 C151.585534,105.608315 150.831871,103.97329 149.419073,103.331716 C147.574878,102.494231 145.511415,103.436346 144.934426,105.379273 C143.983991,108.579738 145.573787,111.321228 148.280692,111.149645 C149.090922,111.098288 149.443397,110.973437 149.975397,110.549357 Z M32.1070333,107.093401 L32.1070333,101.920093 L32.8205898,101.920093 L33.5341508,101.920093 L33.5341508,104.060772 L33.5341508,106.20145 L36.21,106.20145 L38.8858492,106.20145 L38.8858492,104.060772 L38.8858492,101.920093 L39.5994058,101.920093 L40.3129667,101.920093 L40.3129667,107.093401 L40.3129667,112.266705 L39.5994058,112.266705 L38.8858492,112.266705 L38.8858492,109.858443 L38.8858492,107.450182 L36.21,107.450182 L33.5341508,107.450182 L33.5341508,109.858443 L33.5341508,112.266705 L32.8205898,112.266705 L32.1070333,112.266705 L32.1070333,107.093401 Z M62.4333082,107.093401 L62.4333082,101.920093 L63.1914678,101.924634 L63.9496231,101.929175 L66.5803814,105.893805 L69.2111441,109.858443 L69.2116319,105.889268 L69.2121197,101.920093 L69.9256851,101.920093 L70.6392417,101.920093 L70.6392417,107.093401 L70.6392417,112.266705 L69.8810865,112.262169 L69.1229268,112.257632 L66.4921641,108.292993 L63.8614013,104.328359 L63.8609135,108.297534 L63.8604257,112.266705 L63.1468692,112.266705 L62.4333082,112.266705 L62.4333082,107.093401 Z M72.6015299,107.093401 L72.6015299,101.920093 L73.3150865,101.920093 L74.0286519,101.920093 L74.0286519,104.060772 L74.0286519,106.20145 L76.7044967,106.20145 L79.3803459,106.20145 L79.3803459,104.060772 L79.3803459,101.920093 L80.0939069,101.920093 L80.8074634,101.920093 L80.8074634,107.093401 L80.8074634,112.266705 L80.0939069,112.266705 L79.3803459,112.266705 L79.3803459,109.858443 L79.3803459,107.450182 L76.7044967,107.450182 L74.0286519,107.450182 L74.0286519,109.858443 L74.0286519,112.266705 L73.3150865,112.266705 L72.6015299,112.266705 L72.6015299,107.093401 Z M25.1445676,93.0452018 L25.1393082,85.4190333 L17.7092683,81.1376763 C13.622745,78.7829313 10.2524612,76.7727982 10.2197472,76.6707184 C10.1870333,76.5686341 10.2616984,76.3495299 10.385663,76.1838226 C10.5888337,75.912235 11.3232594,76.2935787 17.8358448,80.0522838 L25.0606341,84.2220399 L25.1161996,83.5126164 C25.1607361,82.9440532 25.2756275,82.7441064 25.6948381,82.5056053 C25.9825277,82.341929 26.2184213,82.1563237 26.2190421,82.0931441 C26.2196585,82.0299645 23.1897694,80.2300133 19.4859512,78.0932594 C15.7821286,75.9565011 12.5378182,74.0785942 12.2763681,73.9201242 C11.8192239,73.643051 11.8125011,73.6167539 12.1010865,73.2341729 L12.4011707,72.836337 L19.7120488,77.0690067 C23.7330288,79.39698 27.1834723,81.3041109 27.3797029,81.3070865 C27.575929,81.3100576 31.8249313,78.9518625 36.8219157,76.0666475 C41.8189091,73.1814279 45.9932328,70.8232905 46.0981907,70.8263415 C46.203153,70.8293925 50.6640399,73.3592106 56.0112727,76.4481685 C61.35851,79.5371175 65.9172328,82.1614368 66.1417694,82.2799823 C66.5140133,82.4765011 67.3513969,82.0343902 75.6353215,77.2676541 L84.720612,72.0397916 L84.7263237,63.4324834 L84.7320399,54.8251707 L85.1780177,54.8251707 L85.6239911,54.8251707 L85.6239911,63.1202971 C85.6239911,67.6826208 85.6621907,71.4154279 85.708878,71.4154279 C85.7555565,71.4154279 86.0539202,71.2572106 86.371898,71.0638404 C86.9445011,70.7156186 86.9556541,70.7155654 87.5357428,71.0578271 L88.1214501,71.4033969 L88.1214501,63.1142838 L88.1214501,54.8251707 L88.6566208,54.8251707 L89.1917871,54.8251707 L89.1950067,63.4324834 L89.1982262,72.0397916 L95.3475166,75.5783503 C101.205016,78.9489978 101.487286,79.1352239 101.296191,79.5029268 C101.185854,79.7152417 101.07404,79.9146741 101.047703,79.9461197 C101.021375,79.9775654 97.8536851,78.185796 94.0083858,75.9644124 C90.1630998,73.7430333 86.9242882,71.9623503 86.8110421,72.0073392 C86.4759424,72.1404745 67.3517605,83.1998581 67.2010067,83.3476896 C67.1250953,83.4221375 67.4502483,87.3504169 67.923561,92.0772018 L68.7841375,100.671366 L66.5040843,100.671366 L64.224031,100.671366 L64.3200177,99.9132106 C64.7184922,96.765663 65.9547539,83.4329667 65.8567184,83.3403459 C65.6408603,83.1363902 46.1816231,71.9503237 46.0543193,71.9570067 C45.9871796,71.9605366 41.5170998,74.5145987 36.1208027,77.632714 L26.3093614,83.3020044 L26.2630687,91.9866874 L26.2167716,100.671366 L25.6832993,100.671366 L25.1498315,100.671366 L25.1445676,93.0452018 Z M145.919765,91.5040576 L145.919765,82.3367494 L136.907038,77.1356408 C131.469814,73.9979024 127.80745,71.986949 127.675361,72.0666563 C127.55494,72.1393304 124.664364,74.2335743 121.251863,76.720541 C117.839357,79.2075078 114.939747,81.2835654 114.808284,81.3340133 C114.649973,81.3947672 114.203543,80.7768514 113.486182,79.5040488 L112.403109,77.5823592 L119.883929,74.2759069 L127.364758,70.9694545 L127.365987,59.1736807 L127.36722,47.3779024 L137.535441,41.5148115 L147.703663,35.6517251 L147.703663,23.8510288 L147.703663,12.0503326 L158.171197,6.01031486 C163.928346,2.68830155 168.684732,-0.0163104213 168.740953,7.53880266e-05 C168.797171,0.0164523282 173.499073,2.72102882 179.189632,6.01023503 L189.536084,11.990612 L189.581911,24.1007317 L189.627743,36.2108559 L179.21796,42.2178004 C173.492585,45.5216231 168.746275,48.2247494 168.670608,48.2247494 C168.59494,48.2247494 164.015863,45.615796 158.494887,42.4270776 C152.973911,39.2383592 148.347512,36.632071 148.213996,36.6353304 C148.080483,36.6385942 143.556098,39.1953525 138.159805,42.31702 L128.348364,47.9927761 L128.302475,59.4829534 L128.256594,70.9731264 L138.254537,76.7448869 L148.252479,82.5166475 L152.125636,80.2865676 C154.255871,79.0600177 157.463109,77.2099379 159.252834,76.1752683 C162.499734,74.2981818 162.507472,74.2949091 162.77941,74.6831619 C163.019073,75.0253215 163.020213,75.0954723 162.788856,75.2646475 C162.644151,75.3704523 159.832989,77.0114146 156.541827,78.9112284 L150.557902,82.3654235 L150.557902,91.5183947 L150.557902,100.671366 L150.022732,100.671366 L149.487557,100.671366 L149.487557,91.8234457 L149.487557,82.9755299 L148.894661,83.3253481 C148.31161,83.6693525 148.290865,83.6695787 147.645929,83.3387095 L146.990102,83.0022483 L146.990102,91.8368071 L146.990102,100.671366 L146.454936,100.671366 L145.919765,100.671366 L145.919765,91.5040576 Z M179.144878,41.087255 L188.55494,35.6611175 L188.55494,24.1224435 L188.55494,12.5837783 L178.626687,6.85113525 C173.16616,3.69818625 168.644989,1.14111308 168.579645,1.16875831 C168.514302,1.19640355 164.031299,3.77838581 158.617424,6.90650554 L148.774,12.5939956 L148.774,24.1221242 L148.774,35.6502483 L158.719237,41.3902749 L168.66447,47.1302971 L169.199641,46.8218537 C169.493987,46.652204 173.969339,44.0716364 179.144878,41.087255 Z M159.883348,39.1618448 C155.348075,36.5425721 151.63533,34.3145322 151.632816,34.210643 C151.630302,34.1067539 151.728581,33.8931752 151.851228,33.7360266 C152.048124,33.4837295 152.982253,33.9754146 159.83565,37.9386918 C164.104439,40.4072993 167.899184,42.6060089 168.268421,42.8247095 C168.87353,43.1831131 168.917548,43.2579069 168.714603,43.5828692 C168.590772,43.781153 168.408421,43.9390599 168.309375,43.9337738 C168.210337,43.9284834 164.418625,41.7811175 159.883348,39.1618448 Z M184.98714,24.1421197 L184.98714,14.3306741 L185.522315,14.3306741 L186.057486,14.3306741 L186.057486,24.1421197 L186.057486,33.953561 L185.522315,33.953561 L184.98714,33.953561 L184.98714,24.1421197 Z M151.846208,14.477286 C151.726324,14.3574013 151.628239,14.1718492 151.628239,14.0649446 C151.628239,13.9580443 155.381113,11.6958891 159.967965,9.03793792 C168.243503,4.24249224 168.310151,4.20809756 168.626993,4.56921508 C168.802612,4.76936142 168.882887,4.99442572 168.805388,5.06935255 C168.640528,5.22873171 152.618834,14.482408 152.287836,14.6094191 C152.16482,14.6566253 151.966089,14.5971663 151.846208,14.477286 Z M103.284585,95.3196718 L103.284585,90.1463636 L103.998146,90.1463636 L104.711703,90.1463636 L104.711703,92.2870421 L104.711703,94.4277206 L107.387552,94.4277206 L110.063401,94.4277206 L110.063401,92.2870421 L110.063401,90.1463636 L110.776962,90.1463636 L111.490519,90.1463636 L111.490519,95.3196718 L111.490519,100.492976 L110.776962,100.492976 L110.063401,100.492976 L110.063401,98.084714 L110.063401,95.6764523 L107.387552,95.6764523 L104.711703,95.6764523 L104.711703,98.084714 L104.711703,100.492976 L103.998146,100.492976 L103.284585,100.492976 L103.284585,95.3196718 Z M103.284585,83.5459424 L103.284585,78.3726341 L104.042745,78.3771752 L104.8009,78.3817118 L107.431659,82.3463459 L110.062421,86.31098 L110.062914,82.3418093 L110.063401,78.3726341 L110.776962,78.3726341 L111.490519,78.3726341 L111.490519,83.5459424 L111.490519,88.7192461 L110.732364,88.7147051 L109.974208,88.7101641 L107.343446,84.7455344 L104.712683,80.7808958 L104.712195,84.750071 L104.711703,88.7192461 L103.998146,88.7192461 L103.284585,88.7192461 L103.284585,83.5459424 Z M196.268,79.4435299 C195.947863,79.248337 195.549428,78.8023769 195.382581,78.4525055 C195.1189,77.8995743 195.11337,77.7947849 195.340284,77.6512639 C195.783477,77.3709446 195.995259,77.4594989 196.228523,78.0226696 C196.493251,78.6617783 196.888137,78.9078049 197.649202,78.9078049 C198.70031,78.9078049 199.404488,77.706878 198.902927,76.7696851 C198.689752,76.371357 197.650647,75.9971441 197.218373,76.16302 C196.971996,76.257561 196.920319,76.1996364 196.968164,75.8825543 C197.010656,75.6009357 197.233894,75.4126563 197.724177,75.2449002 C198.781871,74.8830288 199.032971,74.2226962 198.366381,73.5561109 C197.702523,72.8922483 196.340692,73.300337 196.02118,74.258878 C195.968732,74.4162306 195.808146,74.4528071 195.541401,74.3681463 C195.034843,74.2073703 195.155614,73.6875432 195.870461,72.9517472 C196.579361,72.2220576 197.850798,72.1061153 198.709406,72.6928603 C199.694266,73.3658758 199.877202,74.6095654 199.09043,75.2832239 C198.764927,75.5619335 198.773827,75.5901419 199.362905,76.1457073 C201.242758,77.918643 198.521991,80.817796 196.268,79.4435299 Z M3.61696231,76.6978758 C2.48110421,76.3265366 1.506949,75.4554767 0.942851441,74.3067539 C0.501627494,73.4082572 0.442833703,73.0892417 0.442833703,71.5938182 C0.442833703,70.096878 0.50140133,69.7798404 0.944740576,68.8770155 C2.01821729,66.69098 4.24542794,65.7726696 6.69869623,66.5045854 C8.58904656,67.0685543 9.75346785,68.7211308 9.93298448,71.0947583 C10.1818581,74.385459 8.40438581,76.6982217 5.49052772,76.8750554 C4.83148115,76.915051 4.05733038,76.8418448 3.61696231,76.6978758 Z M7.08511752,75.0497738 C7.94799557,74.3619335 8.39186696,73.4545942 8.51163636,72.1337472 C8.69525942,70.1087317 7.94159202,68.4737118 6.52879379,67.832133 C4.68459867,66.9946519 2.62113525,67.9367627 2.04414634,69.879694 C1.09371175,73.0801552 2.6835122,75.8216452 5.39041242,75.6500665 C6.20064302,75.5987095 6.55311752,75.4738537 7.08511752,75.0497738 Z M167.022071,76.6978758 C165.886213,76.3265366 164.912062,75.4554767 164.347965,74.3067539 C163.906741,73.4082572 163.847947,73.0892417 163.847947,71.5938182 C163.847947,70.096878 163.906514,69.7798404 164.349854,68.8770155 C165.423326,66.69098 167.650541,65.7726696 170.103809,66.5045854 C171.99416,67.0685543 173.158581,68.7211308 173.338098,71.0947583 C173.586971,74.385459 171.809499,76.6982217 168.895645,76.8750554 C168.23659,76.915051 167.462439,76.8418448 167.022071,76.6978758 Z M170.490231,75.0497738 C171.353104,74.3619335 171.796976,73.4545942 171.916754,72.1337472 C172.100373,70.1087317 171.346705,68.4737118 169.933911,67.832133 C168.089712,66.9946519 166.026244,67.9367627 165.449259,69.879694 C164.49882,73.0801552 166.088625,75.8216452 168.795525,75.6500665 C169.605761,75.5987095 169.958231,75.4738537 170.490231,75.0497738 Z M177.79514,76.6870643 C176.67141,76.2862882 176.084333,75.695898 175.391317,74.2696674 C174.977978,73.4190288 174.914133,73.0630998 174.911339,71.5938182 C174.907774,69.7204523 175.274812,68.594918 176.211007,67.608306 C177.275477,66.4865233 179.252355,65.9781907 180.85965,66.4129534 C181.791397,66.6649889 182.912718,67.6733969 183.288998,68.5976807 L183.558027,69.2585277 L182.890062,69.4431619 C182.522687,69.5447184 182.201707,69.5684346 182.176789,69.4958714 C181.995721,68.9685942 181.327029,68.1428736 180.841202,67.8466696 C179.550745,67.059867 177.574687,67.6681109 176.781211,69.0963636 C176.393135,69.7949002 176.335233,70.1191264 176.335233,71.5938182 C176.335233,73.0685055 176.393135,73.3927406 176.781211,74.0912772 C177.376922,75.1635654 178.479122,75.7513082 179.693335,75.6441641 C180.765938,75.5495078 181.381738,75.108612 181.954514,74.0251796 C182.383849,73.2130865 182.423787,73.1858581 183.024856,73.2955698 C183.368257,73.3582528 183.674874,73.4347184 183.706235,73.4655033 C183.895024,73.6508337 182.865729,75.4484124 182.287339,75.94349 C181.146195,76.9202749 179.304035,77.2251973 177.79514,76.6870643 Z M185.522315,71.5938182 L185.522315,66.4205144 L186.235871,66.4205144 L186.949432,66.4205144 L186.949432,68.5611929 L186.949432,70.7018714 L189.625277,70.7018714 L192.301126,70.7018714 L192.301126,68.5611929 L192.301126,66.4205144 L193.014687,66.4205144 L193.728244,66.4205144 L193.728244,71.5938182 L193.728244,76.767122 L193.014687,76.767122 L192.301126,76.767122 L192.301126,74.3588647 L192.301126,71.9505987 L189.625277,71.9505987 L186.949432,71.9505987 L186.949432,74.3588647 L186.949432,76.767122 L186.235871,76.767122 L185.522315,76.767122 L185.522315,71.5938182 Z M85.3195166,53.1504169 C84.1836585,52.7790776 83.2095033,51.9080089 82.6454102,50.7592949 C82.2041863,49.8607982 82.145388,49.5417827 82.145388,48.0463592 C82.145388,46.5494191 82.2039557,46.2323769 82.6472993,45.3295521 C83.7207716,43.1435166 85.9479867,42.2252106 88.4012506,42.9571264 C90.2916009,43.5210909 91.4560266,45.1736674 91.6355432,47.5472993 C91.8844169,50.8379956 90.1069401,53.1507539 87.1930909,53.327592 C86.5340355,53.3675876 85.7598847,53.2943769 85.3195166,53.1504169 Z M88.7876718,51.5023149 C89.6505499,50.8144745 90.0944213,49.9071353 90.2141907,48.5862882 C90.3978182,46.5612683 89.6441463,44.9262483 88.2313525,44.2846741 C86.3871574,43.447184 84.3236896,44.3893038 83.7467007,46.3322262 C82.7962661,49.5326918 84.386071,52.2741863 87.0929712,52.1026031 C87.9031973,52.0512461 88.2556763,51.9263947 88.7876718,51.5023149 Z"></path>
            </g>
        </g>
    </g>
</svg>