<?xml version="1.0" encoding="UTF-8"?>
<svg width="120px" height="114px" viewBox="0 0 120 114" version="1.1" xmlns="http://www.w3.org/2000/svg" xmlns:xlink="http://www.w3.org/1999/xlink">
    <!-- Generator: Sketch 43.2 (39069) - http://www.bohemiancoding.com/sketch -->
    <title>Group 6</title>
    <desc>Created with Sketch.</desc>
    <defs></defs>
    <g id="print" stroke="none" stroke-width="1" fill="none" fill-rule="evenodd">
        <g id="Vegetable-Plastic" transform="translate(-415.000000, -115.000000)" fill-rule="nonzero" fill="#FFFFFF">
            <g id="Group-6" transform="translate(415.000000, 115.000000)">
                <path d="M23.45136,107.148887 C22.9692,107.420384 22.52508,107.67061 21.98016,107.977597 C12.5526,91.5384151 7.76304,73.8906415 7.47672,54.9328239 L0.0366,54.9328239 L0.0366,53.2168491 L7.47552,53.2168491 C7.75152,34.2862767 12.53724,16.6275094 21.97032,0.159408805 C22.43424,0.407842767 22.84488,0.600471698 23.21784,0.849025157 C23.29884,0.903037736 23.30868,1.19006918 23.24412,1.3148239 C22.17612,3.37650314 21.01152,5.39265409 20.02908,7.49328931 C18.67968,10.3784214 17.40684,13.3025094 16.20852,16.2531258 C14.82588,19.6573522 13.70436,23.1558616 12.81864,26.7229623 C12.2406,29.0506415 11.61612,31.3736604 11.19228,33.7308553 C10.63872,36.8098113 10.19196,39.9124277 9.8334,43.0201824 C9.55068,45.4703459 9.46476,47.9433333 9.30372,50.4068805 C9.24456,51.3123082 9.2208,52.2200063 9.17808,53.1906792 L29.56656,53.1906792 L29.56656,54.8892075 L9.19368,54.8892075 C9.42852,73.5528239 14.18016,90.9065157 23.45136,107.148887 Z" id="Shape"></path>
                <path d="M96.60648,107.201824 C105.9,90.9851447 110.66328,73.606478 110.90676,54.9237421 L90.4362,54.9237421 L90.4362,53.2254528 L110.9046,53.2254528 C110.67048,34.5302893 105.90156,17.1426604 96.61116,0.927415094 C97.09464,0.644924528 97.54896,0.379522013 98.07612,0.0714591195 C107.52288,16.5343019 112.34784,34.1961761 112.61568,53.2023899 L116.25252,53.2023899 L119.95104,53.2023899 L119.95104,54.9033082 L112.61568,54.9033082 C112.3536,73.8997233 107.5308,91.5657799 98.07936,108.047503 C97.57536,107.758201 97.1202,107.496742 96.60648,107.201824 Z" id="Shape"></path>
                <path d="M35.41188,23.2918491 L33.0336,23.2918491 L33.0336,5.53115094 L35.36928,5.53115094 L35.36928,12.8325283 L44.68584,12.8325283 L44.68584,5.53688679 L47.05176,5.53688679 L47.05176,23.273566 L44.70672,23.273566 L44.70672,14.9929119 L35.41188,14.9929119 C35.41188,17.7549623 35.41188,20.4938302 35.41188,23.2918491 Z" id="Shape"></path>
                <path d="M44.71476,94.5643145 L35.41752,94.5643145 L35.41752,102.87556 L33.04488,102.87556 L33.04488,85.1326667 L35.385,85.1326667 L35.385,92.4336855 L44.67696,92.4336855 L44.67696,85.119044 L47.06028,85.119044 L47.06028,102.871855 L44.71476,102.871855 C44.71476,100.117333 44.71476,97.3648428 44.71476,94.5643145 Z" id="Shape"></path>
                <path d="M75.3882,14.9835912 L75.3882,23.2819308 L73.03212,23.2819308 L73.03212,5.53891824 L75.35592,5.53891824 L75.35592,12.8306164 L84.68196,12.8306164 L84.68196,5.54083019 L87.07476,5.54083019 L87.07476,23.2663962 L84.71544,23.2663962 L84.71544,14.9835912 C81.58968,14.9835912 78.53784,14.9835912 75.3882,14.9835912 Z" id="Shape"></path>
                <path d="M75.38652,94.5761447 L75.38652,102.873767 L73.03104,102.873767 L73.03104,85.1274088 L75.35724,85.1274088 L75.35724,92.4237673 L84.68136,92.4237673 L84.68136,85.1315912 L87.07368,85.1315912 L87.07368,102.879145 L84.71652,102.879145 L84.71652,94.5763836 C81.58992,94.5761447 78.53832,94.5761447 75.38652,94.5761447 Z" id="Shape"></path>
                <path d="M47.56776,50.2851132 C46.78092,50.4641195 46.02696,50.635717 45.25056,50.8123333 C45.18408,50.6800503 45.12564,50.5812264 45.08304,50.4760692 C43.97616,47.7422201 41.90424,46.6497799 39.00636,47.2751069 C36.44388,47.8280189 35.18856,49.5749434 34.71396,51.9969057 C34.34028,53.9035975 34.42416,55.7985786 35.03268,57.6550818 C35.79864,59.9917233 37.8462,61.4206667 40.3752,61.3959308 C42.82512,61.3720314 44.6322,60.0141887 45.39528,57.6237736 C45.46704,57.399 45.53676,57.1735094 45.62184,56.9026101 C46.41204,57.0955975 47.17704,57.2823711 47.9394,57.4685472 C47.32788,60.7174277 44.81628,63.2682075 41.17536,63.4509182 C40.55844,63.4818679 39.93408,63.4707547 39.31884,63.4155472 C35.81328,63.1013899 33.6846,61.1250314 32.66436,57.8612138 C31.95312,55.5856352 31.88172,53.2825723 32.508,50.9752075 C33.80328,46.2033396 38.06712,44.6584843 41.65152,45.1220126 C44.73792,45.5210126 46.87716,47.4205346 47.56776,50.2851132 Z" id="Shape"></path>
                <path d="M87.60804,50.2765094 C86.775,50.465434 86.02068,50.6365535 85.26768,50.8073145 C84.9714,50.2257233 84.72576,49.6621761 84.40992,49.1406918 C83.8254,48.1757547 82.95744,47.5618994 81.8544,47.310239 C79.27632,46.721956 75.867,47.5076478 74.88444,51.3060943 C74.31168,53.5202516 74.33712,55.7242516 75.12492,57.8832013 C75.94632,60.134283 78.0564,61.4887799 80.50248,61.3948553 C82.93884,61.3014088 84.70788,59.924327 85.42464,57.5629497 C85.4874,57.3561006 85.54716,57.1481761 85.61964,56.9020126 C86.41236,57.0960755 87.17748,57.2832075 87.93912,57.4696226 C87.34944,60.608805 85.09764,62.7512642 82.40964,63.288761 C80.85636,63.5994528 79.302,63.5425723 77.77356,63.1470377 C75.90024,62.6621195 74.45196,61.5651384 73.54584,59.8674465 C71.78532,56.5695723 71.5632,53.1360692 72.98304,49.6756792 C74.30508,46.453566 77.991,44.5889371 81.66684,45.1073145 C84.75672,45.5428805 86.65872,47.2948239 87.60804,50.2765094 Z" id="Shape"></path>
                <path d="M113.09784,113.878591 C113.50932,111.977277 113.90736,110.17395 114.288,108.367157 C114.5748,107.00573 114.88704,105.64717 115.10016,104.273912 C115.31136,102.913321 114.52488,102.174233 113.1234,102.327786 C111.4416,102.51217 110.23476,103.394654 109.44864,104.868409 C108.66684,106.334157 108.43368,107.956566 108.1116,109.552925 C107.82504,110.973384 107.54112,112.394201 107.25012,113.843937 L105.00552,113.843937 C105.89616,109.551252 106.77972,105.292145 107.67252,100.989421 L109.80504,100.989421 C109.6776,101.660277 109.55364,102.313327 109.40676,103.087189 C109.91436,102.650428 110.31924,102.281302 110.74608,101.939302 C111.7872,101.105214 112.94688,100.577038 114.31812,100.626151 C116.29176,100.696893 117.61668,102.071465 117.39084,104.022491 C117.20412,105.635818 116.81652,107.227874 116.48292,108.822201 C116.1654,110.339572 115.78248,111.84356 115.47288,113.362484 C115.3854,113.791836 115.21524,113.91444 114.79992,113.887314 C114.26472,113.852063 113.72556,113.878591 113.09784,113.878591 Z" id="Shape"></path>
                <path d="M69.57516,53.237761 L69.57516,54.8592138 L50.43516,54.8592138 L50.43516,53.237761 L69.57516,53.237761 Z" id="Shape"></path>
                <path d="M40.87488,42.6272767 L39.24756,42.6272767 L39.24756,25.7500189 L40.87488,25.7500189 L40.87488,42.6272767 Z" id="Shape"></path>
                <path d="M39.2556,65.9973962 L40.878,65.9973962 L40.878,82.5414969 L39.2556,82.5414969 L39.2556,65.9973962 Z" id="Shape"></path>
                <path d="M79.24308,25.7408176 L80.75052,25.7408176 L80.75052,42.6136541 L79.24308,42.6136541 L79.24308,25.7408176 Z" id="Shape"></path>
                <path d="M80.74056,82.5650377 L79.242,82.5650377 L79.242,66.0085094 L80.74056,66.0085094 L80.74056,82.5650377 Z" id="Shape"></path>
            </g>
        </g>
    </g>
</svg>