<?xml version="1.0" encoding="UTF-8"?>
<svg width="244px" height="111px" viewBox="0 0 244 111" version="1.1" xmlns="http://www.w3.org/2000/svg" xmlns:xlink="http://www.w3.org/1999/xlink">
    <!-- Generator: Sketch 43.2 (39069) - http://www.bohemiancoding.com/sketch -->
    <title>Zitronensäure_-_Citric_acid</title>
    <desc>Created with Sketch.</desc>
    <defs></defs>
    <g id="print" stroke="none" stroke-width="1" fill="none" fill-rule="evenodd">
        <g id="Citric-Acid" transform="translate(-291.000000, -119.000000)" fill-rule="nonzero" fill="#FFFFFF">
            <g id="Zitronensäure_-_Citric_acid" transform="translate(291.000000, 119.000000)">
                <polygon id="path5" points="0.3893 92.83435 0.3893 76.5067 2.55625 76.5067 2.55625 83.21655 11.0027 83.21655 11.0027 76.5067 13.16965 76.5067 13.16965 92.8353 11.0027 92.8353 11.0027 85.14505 2.55625 85.14505 2.55625 92.83435"></polygon>
                <path d="M16.11275,84.8876 C16.11275,82.1782 16.84045,80.05685 18.29585,78.52355 C19.75125,76.9912 21.63035,76.22455 23.9322,76.22455 C25.43985,76.22455 26.79835,76.5846 28.00865,77.3047 C29.21895,78.0248 30.1414,79.02895 30.77695,80.31715 C31.41155,81.60535 31.72885,83.06645 31.72885,84.69855 C31.72885,86.35345 31.39445,87.83545 30.7266,89.1417 C30.0578,90.4489 29.1116,91.43785 27.8861,92.1095 C26.6606,92.78115 25.33915,93.11745 23.9208,93.11745 C22.3837,93.11745 21.01,92.746 19.7997,92.00405 C18.5894,91.2621 17.67265,90.24845 17.0485,88.96405 C16.42435,87.6787 16.11275,86.3202 16.11275,84.8876 Z M18.33955,84.91515 C18.33955,86.88165 18.8687,88.4311 19.927,89.5635 C20.9853,90.6959 22.3134,91.26115 23.9094,91.26115 C25.5358,91.26115 26.87435,90.68925 27.926,89.5464 C28.9767,88.40355 29.50205,86.7819 29.50205,84.68145 C29.50205,83.35335 29.27785,82.1934 28.8285,81.20255 C28.37915,80.2117 27.72175,79.44315 26.8563,78.89785 C25.99085,78.35255 25.01995,78.0799 23.9436,78.0799 C22.4141,78.0799 21.0974,78.60525 19.99445,79.655 C18.8915,80.70475 18.33955,82.45845 18.33955,84.91515 Z" id="path7"></path>
                <polygon id="polygon9" points="32.84415 79.6303 32.03665 78.2053 56.45165 64.09685 56.45165 65.94935"></polygon>
                <polygon id="polygon11" points="56.45165 65.94935 56.45165 64.09685 89.13165 82.9553 89.13165 84.8078"></polygon>
                <polygon id="polygon13" points="89.13165 84.8078 89.13165 82.9553 120.9557 64.57185 121.76415 65.04685 121.2407 66.23435"></polygon>
                <polygon id="polygon15" points="123.04665 66.70935 121.76415 65.04685 122.57165 64.57185 154.39665 82.9553 154.39665 84.8078"></polygon>
                <polygon id="polygon17" points="154.39665 84.8078 154.39665 82.9553 187.07665 64.09685 187.07665 65.94935"></polygon>
                <path d="M211.92485,84.8876 C211.92485,82.1782 212.65255,80.05685 214.107,78.52355 C215.56335,76.9912 217.4415,76.22455 219.7443,76.22455 C221.251,76.22455 222.61045,76.5846 223.82075,77.3047 C225.0301,78.0248 225.95255,79.02895 226.5881,80.31715 C227.22365,81.60535 227.54095,83.06645 227.54095,84.69855 C227.54095,86.35345 227.20655,87.83545 226.53775,89.1417 C225.86895,90.4489 224.92275,91.43785 223.6982,92.1095 C222.47175,92.78115 221.1503,93.11745 219.7329,93.11745 C218.19485,93.11745 216.8221,92.746 215.6118,92.00405 C214.40055,91.2621 213.4838,90.24845 212.8606,88.96405 C212.2374,87.6787 211.92485,86.3202 211.92485,84.8876 Z M214.15165,84.91515 C214.15165,86.88165 214.6808,88.4311 215.73815,89.5635 C216.7974,90.69495 218.12455,91.26115 219.7215,91.26115 C221.34695,91.26115 222.68645,90.68925 223.73715,89.5464 C224.78785,88.40355 225.31415,86.7819 225.31415,84.68145 C225.31415,83.35335 225.08995,82.1934 224.63965,81.20255 C224.18935,80.2117 223.5329,79.44315 222.6684,78.89785 C221.80295,78.35255 220.8311,78.0799 219.7557,78.0799 C218.22525,78.0799 216.9095,78.60525 215.8056,79.655 C214.70265,80.7057 214.15165,82.45845 214.15165,84.91515 Z" id="path21"></path>
                <polygon id="path23" points="230.40235 92.83435 230.40235 76.5067 232.5693 76.5067 232.5693 83.21655 241.01575 83.21655 241.01575 76.5067 243.1827 76.5067 243.1827 92.8353 241.01575 92.8353 241.01575 85.14505 232.5693 85.14505 232.5693 92.83435"></polygon>
                <polygon id="polygon25" points="187.07665 65.94935 187.07665 64.09685 211.4907 78.2053 210.68415 79.5828"></polygon>
                <polygon id="polygon27" points="120.9557 26.9053 122.57165 27.8078 122.57165 64.57185 121.76415 65.04685 120.9557 64.57185"></polygon>
                <path d="M123.71735,102.4626 C123.71735,99.7532 124.44505,97.63185 125.90045,96.09855 C127.35585,94.5662 129.23495,93.79955 131.5368,93.79955 C133.04445,93.79955 134.40295,94.1596 135.61325,94.8797 C136.82355,95.5998 137.746,96.60395 138.3806,97.89215 C139.01615,99.18035 139.33345,100.64145 139.33345,102.27355 C139.33345,103.92845 138.99905,105.41045 138.33025,106.7167 C137.6624,108.0239 136.7162,109.01285 135.4907,109.6845 C134.2652,110.35615 132.94375,110.69245 131.5254,110.69245 C129.9883,110.69245 128.6146,110.321 127.4043,109.57905 C126.194,108.8371 125.27725,107.82345 124.6531,106.53905 C124.02895,105.2537 123.71735,103.8952 123.71735,102.4626 Z M125.94415,102.49015 C125.94415,104.45665 126.4733,106.0061 127.5316,107.1385 C128.5899,108.2709 129.918,108.83615 131.514,108.83615 C133.1404,108.83615 134.47895,108.26425 135.5306,107.1214 C136.58035,105.97855 137.10665,104.3569 137.10665,102.25645 C137.10665,100.92835 136.88245,99.7684 136.43215,98.77755 C135.9828,97.7867 135.32635,97.01815 134.4609,96.47285 C133.59545,95.92755 132.62455,95.6549 131.5482,95.6549 C130.0187,95.6549 128.702,96.18025 127.59905,97.23 C126.4961,98.27975 125.94415,100.03345 125.94415,102.49015 Z" id="path31"></path>
                <polygon id="path33" points="142.1939 110.40935 142.1939 94.0817 144.36085 94.0817 144.36085 100.79155 152.8073 100.79155 152.8073 94.0817 154.97425 94.0817 154.97425 110.4103 152.8073 110.4103 152.8073 102.721 144.36085 102.721 144.36085 110.4103 142.1939 110.4103"></polygon>
                <polygon id="polygon35" points="129.7432 91.7428 128.17665 92.12185 121.2407 66.23435 121.76415 65.04685 123.04665 66.70935"></polygon>
                <path d="M48.66735,28.41105 C48.66735,25.70165 49.39505,23.5803 50.85045,22.047 C52.30585,20.51465 54.18495,19.748 56.4868,19.748 C57.99445,19.748 59.35295,20.10805 60.56325,20.82815 C61.77355,21.54825 62.696,22.5524 63.33155,23.8406 C63.96615,25.1288 64.28345,26.5899 64.28345,28.222 C64.28345,29.8769 63.94905,31.3589 63.2812,32.66515 C62.6124,33.97235 61.6662,34.9613 60.4407,35.63295 C59.2152,36.3046 57.89375,36.6409 56.4754,36.6409 C54.9383,36.6409 53.5646,36.26945 52.3543,35.5275 C51.144,34.78555 50.22725,33.7719 49.6031,32.4875 C48.97895,31.20215 48.66735,29.84365 48.66735,28.41105 Z M50.89415,28.4386 C50.89415,30.4051 51.4233,31.95455 52.4816,33.08695 C53.5399,34.21935 54.868,34.7846 56.464,34.7846 C58.0904,34.7846 59.42895,34.2127 60.4806,33.06985 C61.5313,31.927 62.05665,30.30535 62.05665,28.2049 C62.05665,26.8768 61.83245,25.71685 61.3831,24.726 C60.93375,23.73515 60.27635,22.9666 59.4109,22.4213 C58.54545,21.876 57.57455,21.60335 56.4982,21.60335 C54.9687,21.60335 53.652,22.1287 52.54905,23.17845 C51.4461,24.2282 50.89415,25.9819 50.89415,28.4386 Z" id="path39"></path>
                <polygon id="rect41" points="52.840702 38.732799 54.455702 38.732799 54.455702 66.661849 52.840702 66.661849"></polygon>
                <polygon id="rect43" points="58.494148 38.732799 60.109148 38.732799 60.109148 66.661849 58.494148 66.661849"></polygon>
                <path d="M179.24485,28.41105 C179.24485,25.70165 179.97255,23.5803 181.427,22.047 C182.88335,20.51465 184.7615,19.748 187.0643,19.748 C188.571,19.748 189.93045,20.10805 191.14075,20.82815 C192.3501,21.54825 193.27255,22.5524 193.9081,23.8406 C194.54365,25.1288 194.86095,26.5899 194.86095,28.222 C194.86095,29.8769 194.52655,31.3589 193.85775,32.66515 C193.18895,33.97235 192.24275,34.9613 191.0182,35.63295 C189.79175,36.3046 188.4703,36.6409 187.0529,36.6409 C185.51485,36.6409 184.1421,36.26945 182.9318,35.5275 C181.72055,34.78555 180.8038,33.7719 180.1806,32.4875 C179.55645,31.20215 179.24485,29.84365 179.24485,28.41105 Z M181.47165,28.4386 C181.47165,30.4051 182.0008,31.95455 183.05815,33.08695 C184.1174,34.2184 185.44455,34.7846 187.0415,34.7846 C188.66695,34.7846 190.00645,34.2127 191.05715,33.06985 C192.10785,31.927 192.63415,30.30535 192.63415,28.2049 C192.63415,26.8768 192.40995,25.71685 191.95965,24.726 C191.50935,23.73515 190.8529,22.9666 189.9884,22.4213 C189.12295,21.876 188.1511,21.60335 187.0757,21.60335 C185.54525,21.60335 184.2295,22.1287 183.1256,23.17845 C182.02265,24.2282 181.47165,25.9819 181.47165,28.4386 Z" id="path47"></path>
                <polygon id="rect49" points="183.4182 38.732799 185.03415 38.732799 185.03415 66.661849 183.4182 66.661849"></polygon>
                <polygon id="rect51" points="189.07166 38.732799 190.68571 38.732799 190.68571 66.661849 189.07166 66.661849"></polygon>
                <path d="M81.34735,9.5526 C81.34735,6.8432 82.07505,4.72185 83.53045,3.18855 C84.98585,1.6562 86.864,0.88955 89.16585,0.88955 C90.6735,0.88955 92.032,1.2496 93.2423,1.9697 C94.4526,2.6898 95.37505,3.69395 96.0106,4.98215 C96.6452,6.27035 96.9625,7.73145 96.9625,9.36355 C96.9625,11.01845 96.6281,12.50045 95.96025,13.8067 C95.29145,15.1139 94.34525,16.10285 93.11975,16.7745 C91.89425,17.44615 90.5728,17.78245 89.15445,17.78245 C87.61735,17.78245 86.24365,17.411 85.03335,16.66905 C83.82305,15.9271 82.9063,14.91345 82.28215,13.62905 C81.65895,12.34465 81.34735,10.9852 81.34735,9.5526 Z M83.57415,9.58015 C83.57415,11.54665 84.1033,13.0961 85.1616,14.2285 C86.2199,15.3609 87.548,15.92615 89.144,15.92615 C90.7704,15.92615 92.10895,15.35425 93.1606,14.2114 C94.2113,13.06855 94.73665,11.4469 94.73665,9.34645 C94.73665,8.01835 94.51245,6.8584 94.0631,5.86755 C93.61375,4.8767 92.95635,4.10815 92.0909,3.56285 C91.22545,3.01755 90.25455,2.7449 89.1782,2.7449 C87.6487,2.7449 86.332,3.27025 85.22905,4.32 C84.1261,5.36975 83.57415,7.1244 83.57415,9.58015 Z" id="path55"></path>
                <polygon id="polygon57" points="96.5407 16.9778 97.34915 15.59935 122.1907 29.89685 121.38415 31.32185"></polygon>
                <polygon id="polygon59" points="99.34415 12.08435 100.15165 10.7078 124.9932 25.0053 124.1857 26.4303"></polygon>
                <path d="M146.56485,9.5526 C146.56485,6.8432 147.29255,4.72185 148.74795,3.18855 C150.20335,1.6562 152.08245,0.88955 154.3843,0.88955 C155.89195,0.88955 157.2514,1.2496 158.46075,1.9697 C159.6701,2.6898 160.5935,3.69395 161.22905,4.98215 C161.86365,6.27035 162.18095,7.73145 162.18095,9.36355 C162.18095,11.01845 161.84655,12.50045 161.1787,13.8067 C160.5099,15.1139 159.56275,16.10285 158.3382,16.7745 C157.1127,17.44615 155.7903,17.78245 154.3729,17.78245 C152.8358,17.78245 151.4621,17.411 150.2518,16.66905 C149.0415,15.9271 148.12475,14.91345 147.5006,13.62905 C146.87645,12.34465 146.56485,10.9852 146.56485,9.5526 Z M148.7907,9.58015 C148.7907,11.54665 149.31985,13.0961 150.37815,14.2285 C151.43645,15.3609 152.76455,15.92615 154.36055,15.92615 C155.98695,15.92615 157.3255,15.35425 158.37715,14.2114 C159.4288,13.06855 159.9532,11.4469 159.9532,9.34645 C159.9532,8.01835 159.729,6.8584 159.27965,5.86755 C158.82935,4.8767 158.17195,4.10815 157.30745,3.56285 C156.44295,3.01755 155.4711,2.7449 154.39475,2.7449 C152.86525,2.7449 151.54855,3.27025 150.4456,4.32 C149.34265,5.36975 148.7907,7.1244 148.7907,9.58015 Z" id="path63"></path>
                <polygon id="path65" points="165.0414 17.49935 165.0414 1.1717 167.20835 1.1717 167.20835 7.88155 175.6548 7.88155 175.6548 1.1717 177.82175 1.1717 177.82175 17.5003 175.6548 17.5003 175.6548 9.811 167.20835 9.811 167.20835 17.5003 165.0414 17.5003"></polygon>
                <polygon id="polygon67" points="144.65915 13.22435 145.4657 14.6028 122.57165 27.8078 120.9557 26.9053"></polygon>
            </g>
        </g>
    </g>
</svg>