<?xml version="1.0" encoding="UTF-8"?>
<svg width="100px" height="164px" viewBox="0 0 100 164" version="1.1" xmlns="http://www.w3.org/2000/svg" xmlns:xlink="http://www.w3.org/1999/xlink">
    <!-- Generator: Sketch 43.2 (39069) - http://www.bohemiancoding.com/sketch -->
    <title>Group 4</title>
    <desc>Created with Sketch.</desc>
    <defs></defs>
    <g id="print" stroke="none" stroke-width="1" fill="none" fill-rule="evenodd">
        <g id="High-Fructose-Corn-Syrup" transform="translate(-435.000000, -66.000000)" fill-rule="nonzero" fill="#FFFFFF">
            <g id="Group-4" transform="translate(435.000000, 66.000000)">
                <path d="M51.9669935,8.55676805 L53.6543083,8.98437515 C53.2983544,10.3642751 52.6627219,11.4205805 51.7474112,12.1509799 C50.8274781,12.8767568 49.7087645,13.2373337 48.3843379,13.2373337 C47.0206178,13.2373337 45.904216,12.9599669 45.0443787,12.4052331 C44.1891645,11.8435651 43.5373521,11.0345787 43.0912538,9.97827278 C42.6428438,8.91503314 42.4209503,7.78014083 42.4209503,6.5689716 C42.4209503,5.2468568 42.6682692,4.09116095 43.1721527,3.10188639 C43.680658,2.11723373 44.3995006,1.3683432 45.3333024,0.859837278 C46.2647929,0.351331361 47.2910503,0.0970781065 48.4190089,0.0970781065 C49.6902734,0.0970781065 50.7558249,0.420673373 51.6202846,1.06786272 C52.4893675,1.71505207 53.0926402,2.62573964 53.4347266,3.79530296 L51.7820822,4.18823964 C51.4816012,3.26368343 51.0493716,2.59106864 50.4877036,2.16577278 C49.9329698,1.74278817 49.2303071,1.53014083 48.3843379,1.53014083 C47.4043083,1.53014083 46.5883876,1.76590237 45.9342639,2.23511479 C45.277829,2.70663846 44.8155509,3.33302485 44.5474296,4.11889822 C44.2839314,4.90477041 44.1544935,5.71837988 44.1544935,6.55741479 C44.1544935,7.63683432 44.307045,8.57988166 44.6167716,9.38886864 C44.9311207,10.197855 45.4188237,10.8034391 46.0845041,11.2033101 C46.7548077,11.5962462 47.4736503,11.7927148 48.2456544,11.7927148 C49.1933249,11.7927148 49.9907544,11.5245929 50.6379438,10.9837278 C51.2897562,10.4382396 51.7358544,9.62925325 51.9669935,8.55676805 Z" id="Shape"></path>
                <polygon id="Shape" points="55.7692308 13.0177515 55.7692308 0.30510355 57.4565456 0.30510355 57.4565456 5.52884615 64.0555657 5.52884615 64.0555657 0.30510355 65.7428811 0.30510355 65.7428811 13.0177515 64.0555657 13.0177515 64.0555657 7.0312497 57.4565456 7.0312497 57.4565456 13.0177515"></polygon>
                <path d="M73.9113349,15.6573598 L73.9113349,16.778384 L67.6127959,16.778384 C67.6035503,16.4963941 67.6497781,16.2236503 67.7514793,15.969397 C67.9132769,15.5394787 68.1675296,15.1141828 68.5142379,14.6981325 C68.8655692,14.2820822 69.3810095,13.8036243 70.051313,13.2535136 C71.0821929,12.4075444 71.7779219,11.7372414 72.1431213,11.2426036 C72.5129438,10.7433432 72.697855,10.2718195 72.697855,9.83265562 C72.697855,9.36575444 72.5291237,8.97281775 72.2009059,8.65384615 C71.8680657,8.33949704 71.4381473,8.18001124 70.9065272,8.18001124 C70.3333024,8.18001124 69.8802698,8.35105385 69.5428071,8.68851716 C69.2099669,9.03060296 69.0389237,9.49519231 69.0343012,10.0869083 L67.8323781,9.95978166 C67.9155882,9.06758521 68.2253142,8.38572485 68.7569343,7.91420118 C69.2931769,7.44730059 70.0189533,7.20922722 70.9296414,7.20922722 C71.8357065,7.20922722 72.5591716,7.46347988 73.0907917,7.9719858 C73.6270343,8.48049172 73.8997781,9.11150178 73.8997781,9.85576923 C73.8997781,10.2348373 73.8188793,10.606971 73.6570822,10.9767935 C73.4999077,11.346616 73.2433432,11.7372414 72.8827663,12.1440462 C72.5175669,12.5554734 71.9166047,13.1125183 71.0798817,13.8198041 C70.3772189,14.4161426 69.9264976,14.8137018 69.7277183,15.0217272 C69.524316,15.2297521 69.3625183,15.4447112 69.242326,15.6573598 L73.9113349,15.6573598 Z" id="Shape"></path>
                <path d="M75.5038828,6.82322485 C75.5038828,4.71985917 76.070174,3.07414911 77.202755,1.87684911 C78.3353367,0.684171598 79.7961355,0.0855213018 81.594397,0.0855213018 C82.7639609,0.0855213018 83.817955,0.369822485 84.7610024,0.929178698 C85.7086722,1.48391243 86.4275148,2.26747396 86.9221527,3.27524024 C87.4121669,4.27838402 87.6617976,5.41327692 87.6617976,6.68454142 C87.6617976,7.97429704 87.3982988,9.12305858 86.8759243,10.1400704 C86.3581728,11.1570822 85.6208396,11.9290864 84.6685467,12.4514609 C83.7116308,12.978458 82.6830621,13.2373337 81.5828402,13.2373337 C80.3855396,13.2373337 79.3176775,12.9484095 78.3700071,12.3705621 C77.4269598,11.7927148 76.7173633,11.0045302 76.231971,10.001387 C75.7465793,9.00055503 75.5038828,7.94193787 75.5038828,6.82322485 Z M77.237426,6.85789586 C77.237426,8.38341361 77.646542,9.59227101 78.4740201,10.4752219 C79.2968751,11.3535503 80.327755,11.7927148 81.5712834,11.7927148 C82.8425479,11.7927148 83.8849852,11.3512391 84.7032178,10.4636651 C85.5168272,9.57146805 85.9282544,8.30713728 85.9282544,6.67298462 C85.9282544,5.64210414 85.7479657,4.74066213 85.3966343,3.9686574 C85.049926,3.19203018 84.5344858,2.59106864 83.8595598,2.16577278 C83.1892568,1.74278817 82.4380544,1.53014083 81.6059538,1.53014083 C80.4086538,1.53014083 79.3800852,1.94156805 78.5202479,2.75517751 C77.6650331,3.57340947 77.237426,4.93944142 77.237426,6.85789586 Z" id="Shape"></path>
                <polygon id="Shape" points="89.8807325 13.0177515 89.8807325 0.30510355 91.5680473 0.30510355 91.5680473 5.52884615 98.1670675 5.52884615 98.1670675 0.30510355 99.8543822 0.30510355 99.8543822 13.0177515 98.1670675 13.0177515 98.1670675 7.0312497 91.5680473 7.0312497 91.5680473 13.0177515"></polygon>
                <polygon id="Shape" points="47.4112426 35.9097633 48.6686391 35.9097633 48.6686391 14.9038462 47.4112426 14.9038462"></polygon>
                <path d="M71.3433799,36.1871302 C71.3433799,34.0837645 71.909671,32.4380544 73.0422521,31.2407544 C74.1748337,30.0480769 75.6379438,29.4494266 77.4338941,29.4494266 C78.603458,29.4494266 79.6597633,29.7337278 80.6004994,30.293084 C81.5481692,30.8478178 82.2670118,31.6313793 82.7616497,32.6391456 C83.2516639,33.6422893 83.5012947,34.7771822 83.5012947,36.0484467 C83.5012947,37.3382024 83.2377959,38.4869639 82.7154213,39.5039757 C82.1976698,40.5209876 81.4626479,41.2929917 80.5080438,41.8153663 C79.5511278,42.3423633 78.5225592,42.6012391 77.4223373,42.6012391 C76.2250367,42.6012391 75.1571746,42.3123148 74.2095041,41.7344675 C73.2664568,41.1566201 72.5568604,40.3684355 72.071468,39.3652923 C71.5860763,38.3644604 71.3433799,37.3058432 71.3433799,36.1871302 Z M73.0769231,36.2218012 C73.0769231,37.7473189 73.4883503,38.9561763 74.3135172,39.8391272 C75.1363722,40.7174556 76.1695633,41.1566201 77.4107805,41.1566201 C78.682045,41.1566201 79.7244822,40.7151444 80.5427148,39.8275704 C81.3563243,38.9353734 81.7677515,37.6710426 81.7677515,36.0368899 C81.7677515,35.0060095 81.5874627,34.1045675 81.2361314,33.3325627 C80.8894231,32.5559355 80.3762947,31.954974 79.6990568,31.5296781 C79.0287538,31.1066935 78.2775515,30.8940462 77.4454509,30.8940462 C76.2481509,30.8940462 75.2218935,31.3054734 74.359745,32.1190828 C73.5045302,32.9373148 73.0769231,34.3033467 73.0769231,36.2218012 Z" id="Shape"></path>
                <polygon id="Shape" points="48.0399408 34.3195266 69.6745562 34.3195266 69.6745562 33.0621302 48.0399408 33.0621302"></polygon>
                <polygon id="Shape" points="48.0399408 38.7204142 69.6745562 38.7204142 69.6745562 37.4630178 48.0399408 37.4630178"></polygon>
                <polygon id="Shape" points="48.6686391 64.6079882 48.0399408 65.2366864 47.4112426 64.6079882 47.4112426 35.9097633 48.6686391 35.9097633"></polygon>
                <polygon id="Shape" points="72.3904402 71.5976331 72.3904402 58.8849852 74.077755 58.8849852 74.077755 64.1087278 80.6767751 64.1087278 80.6767751 58.8849852 82.3640899 58.8849852 82.3640899 71.5976331 80.6767751 71.5976331 80.6767751 65.6111314 74.077755 65.6111314 74.077755 71.5976331"></polygon>
                <polygon id="Shape" points="70.7100592 64.6079882 70.7100592 65.8653846 48.6686391 65.8653846 48.0399408 65.2366864 48.6686391 64.6079882"></polygon>
                <polygon id="Shape" points="0.386002367 71.7085799 0.386002367 58.995932 2.07331716 58.995932 2.07331716 64.2196746 8.67233728 64.2196746 8.67233728 58.995932 10.3596521 58.995932 10.3596521 71.7085799 8.67233728 71.7085799 8.67233728 65.7220781 2.07331716 65.7220781 2.07331716 71.7085799"></polygon>
                <path d="M12.6363722,65.5140533 C12.6363722,63.4106876 13.2026627,61.7649775 14.3352438,60.5676775 C15.4678254,59.375 16.9286243,58.7763497 18.7268864,58.7763497 C19.8964497,58.7763497 20.9504438,59.0606509 21.8934911,59.6200071 C22.8411609,60.1747408 23.5600036,60.9583024 24.0546414,61.9660686 C24.5446562,62.9692124 24.7942864,64.1041053 24.7942864,65.3753698 C24.7942864,66.6651254 24.5307876,67.813887 24.0084136,68.8308988 C23.4906621,69.8479107 22.7533284,70.6199148 21.8010355,71.1422893 C20.8441195,71.6669751 19.8155509,71.9281621 18.715329,71.9281621 C17.518029,71.9281621 16.4501663,71.6392379 15.5024964,71.0613905 C14.5594491,70.4835432 13.8498521,69.6953586 13.3644604,68.6922154 C12.879068,67.6913834 12.6363722,66.6327663 12.6363722,65.5140533 Z M14.3699148,65.5487243 C14.3699148,67.074242 14.7790308,68.2830994 15.6065089,69.1660503 C16.4293639,70.0443787 17.4602438,70.4835432 18.7037722,70.4835432 C19.9750367,70.4835432 21.017474,70.0420675 21.8357065,69.1544935 C22.649316,68.2622964 23.0607432,66.9979657 23.0607432,65.363813 C23.0607432,64.3329325 22.880455,63.4314905 22.5291237,62.6594858 C22.1824148,61.8828586 21.6669751,61.281897 20.9920485,60.8566012 C20.3217456,60.4336166 19.5705438,60.2209692 18.7384432,60.2209692 C17.5411426,60.2209692 16.512574,60.6323964 15.6527367,61.4460059 C14.7975219,62.2642379 14.3699148,63.6302698 14.3699148,65.5487243 Z" id="Shape"></path>
                <polygon id="Shape" points="26.4792899 65.8653846 26.4792899 64.6079882 47.4112426 64.6079882 48.0399408 65.2366864 47.4112426 65.8653846"></polygon>
                <polygon id="Shape" points="48.6686391 93.9718935 48.0399408 94.6005917 47.4112426 93.9718935 47.4112426 65.8653846 48.0399408 65.2366864 48.6686391 65.8653846"></polygon>
                <path d="M71.3433799,94.8779586 C71.3433799,92.7745929 71.909671,91.1288828 73.0422521,89.9315828 C74.1748337,88.7389053 75.6379438,88.140255 77.4338941,88.140255 C78.603458,88.140255 79.6597633,88.4245562 80.6004994,88.9839124 C81.5481692,89.5386462 82.2670118,90.3222077 82.7616497,91.329974 C83.2516639,92.3331178 83.5012947,93.4680107 83.5012947,94.7392751 C83.5012947,96.0290308 83.2377959,97.1777923 82.7154213,98.1948041 C82.1976698,99.211816 81.4626479,99.9838201 80.5080438,100.506195 C79.5511278,101.03088 78.5225592,101.292067 77.4223373,101.292067 C76.2250367,101.292067 75.1571746,101.003143 74.2095041,100.425296 C73.2664568,99.8474485 72.5568604,99.0592639 72.071468,98.0561207 C71.5860763,97.0552888 71.3433799,95.9966716 71.3433799,94.8779586 Z M73.0769231,94.9126296 C73.0769231,96.4381473 73.4883503,97.6470047 74.3135172,98.5299556 C75.1363722,99.408284 76.1695633,99.8474485 77.4107805,99.8474485 C78.682045,99.8474485 79.7244822,99.4059728 80.5427148,98.5183988 C81.3563243,97.6262018 81.7677515,96.361871 81.7677515,94.7277183 C81.7677515,93.6968379 81.5874627,92.7953959 81.2361314,92.0233911 C80.8894231,91.2467639 80.3762947,90.6458024 79.6990568,90.2205065 C79.0287538,89.7975219 78.2775515,89.5848746 77.4454509,89.5848746 C76.2481509,89.5848746 75.2218935,89.9963018 74.359745,90.8099112 C73.5045302,91.6281432 73.0769231,92.9941751 73.0769231,94.9126296 Z" id="Shape"></path>
                <polygon id="Shape" points="85.7202296 101.072485 85.7202296 88.3598373 87.4075444 88.3598373 87.4075444 93.5835799 94.0065645 93.5835799 94.0065645 88.3598373 95.6938793 88.3598373 95.6938793 101.072485 94.0065645 101.072485 94.0065645 95.0859834 87.4075444 95.0859834 87.4075444 101.072485"></polygon>
                <polygon id="Shape" points="69.6745562 93.9718935 69.6745562 95.2292899 48.6686391 95.2292899 48.0399408 94.6005917 48.6686391 93.9718935"></polygon>
                <polygon id="Shape" points="13.6996118 100.961538 13.6996118 88.2488905 15.3869266 88.2488905 15.3869266 93.4726331 21.9859467 93.4726331 21.9859467 88.2488905 23.6732615 88.2488905 23.6732615 100.961538 21.9859467 100.961538 21.9859467 94.9750367 15.3869266 94.9750367 15.3869266 100.961538"></polygon>
                <polygon id="Shape" points="25.295858 95.2292899 25.295858 93.9718935 47.4112426 93.9718935 48.0399408 94.6005917 47.4112426 95.2292899"></polygon>
                <polygon id="Shape" points="48.6686391 123.335799 48.0399408 123.964497 47.4112426 123.335799 47.4112426 95.2292899 48.0399408 94.6005917 48.6686391 95.2292899"></polygon>
                <path d="M71.3433799,124.241864 C71.3433799,122.138498 71.909671,120.492788 73.0422521,119.295488 C74.1748337,118.102811 75.6379438,117.50416 77.4338941,117.50416 C78.603458,117.50416 79.6597633,117.788462 80.6004994,118.347818 C81.5481692,118.902551 82.2670118,119.686113 82.7616497,120.693879 C83.2516639,121.697023 83.5012947,122.831916 83.5012947,124.10318 C83.5012947,125.392936 83.2377959,126.541698 82.7154213,127.558709 C82.1976698,128.575721 81.4626479,129.347725 80.5080438,129.8701 C79.5511278,130.394786 78.5225592,130.655973 77.4223373,130.655973 C76.2250367,130.655973 75.1571746,130.367049 74.2095041,129.789201 C73.2664568,129.211354 72.5568604,128.423169 72.071468,127.420026 C71.5860763,126.419194 71.3433799,125.360577 71.3433799,124.241864 Z M73.0769231,124.276535 C73.0769231,125.802053 73.4883503,127.01091 74.3135172,127.893861 C75.1363722,128.772189 76.1695633,129.211354 77.4107805,129.211354 C78.682045,129.211354 79.7244822,128.769878 80.5427148,127.882304 C81.3563243,126.990107 81.7677515,125.725776 81.7677515,124.091624 C81.7677515,123.060743 81.5874627,122.159301 81.2361314,121.387296 C80.8894231,120.610669 80.3762947,120.009708 79.6990568,119.584412 C79.0287538,119.161427 78.2775515,118.94878 77.4454509,118.94878 C76.2481509,118.94878 75.2218935,119.360207 74.359745,120.173817 C73.5045302,120.992049 73.0769231,122.35808 73.0769231,124.276535 Z" id="Shape"></path>
                <polygon id="Shape" points="85.7202296 130.436391 85.7202296 117.723743 87.4075444 117.723743 87.4075444 122.947485 94.0065645 122.947485 94.0065645 117.723743 95.6938793 117.723743 95.6938793 130.436391 94.0065645 130.436391 94.0065645 124.449889 87.4075444 124.449889 87.4075444 130.436391"></polygon>
                <polygon id="Shape" points="69.6745562 123.335799 69.6745562 124.593195 48.6686391 124.593195 48.0399408 123.964497 48.6686391 123.335799"></polygon>
                <polygon id="Shape" points="13.6996118 130.325444 13.6996118 117.612796 15.3869266 117.612796 15.3869266 122.836538 21.9859467 122.836538 21.9859467 117.612796 23.6732615 117.612796 23.6732615 130.325444 21.9859467 130.325444 21.9859467 124.338942 15.3869266 124.338942 15.3869266 130.325444"></polygon>
                <polygon id="Shape" points="25.295858 124.593195 25.295858 123.335799 47.4112426 123.335799 48.0399408 123.964497 47.4112426 124.593195"></polygon>
                <path d="M51.9669935,155.339312 L53.6543083,155.76692 C53.2983544,157.14682 52.6627219,158.203125 51.7474112,158.933524 C50.8274781,159.659301 49.7087645,160.019878 48.3843379,160.019878 C47.0206178,160.019878 45.904216,159.742511 45.0443787,159.187778 C44.1891645,158.626109 43.5373521,157.817123 43.0912538,156.760817 C42.6428438,155.697578 42.4209503,154.562685 42.4209503,153.351516 C42.4209503,152.029401 42.6682692,150.873705 43.1721527,149.884431 C43.680658,148.899778 44.3995006,148.150888 45.3333024,147.642382 C46.2647929,147.133876 47.2910503,146.879622 48.4190089,146.879622 C49.6902734,146.879622 50.7558249,147.203218 51.6202846,147.850407 C52.4893675,148.497596 53.0926402,149.408284 53.4347266,150.577847 L51.7820822,150.970784 C51.4816012,150.046228 51.0493716,149.373613 50.4877036,148.948317 C49.9329698,148.525333 49.2303071,148.312685 48.3843379,148.312685 C47.4043083,148.312685 46.5883876,148.548447 45.9342639,149.017659 C45.277829,149.489183 44.8155509,150.115569 44.5474296,150.901443 C44.2839314,151.687315 44.1544935,152.500924 44.1544935,153.339959 C44.1544935,154.419379 44.307045,155.362426 44.6167716,156.171413 C44.9311207,156.980399 45.4188237,157.585983 46.0845041,157.985854 C46.7548077,158.378791 47.4736503,158.575259 48.2456544,158.575259 C49.1933249,158.575259 49.9907544,158.307137 50.6379438,157.766272 C51.2897562,157.220784 51.7358544,156.411798 51.9669935,155.339312 Z" id="Shape"></path>
                <polygon id="Shape" points="55.7692308 159.800296 55.7692308 147.087648 57.4565456 147.087648 57.4565456 152.311391 64.0555657 152.311391 64.0555657 147.087648 65.7428811 147.087648 65.7428811 159.800296 64.0555657 159.800296 64.0555657 153.813794 57.4565456 153.813794 57.4565456 159.800296"></polygon>
                <path d="M73.9113349,162.442215 L73.9113349,163.56324 L67.6127959,163.56324 C67.6035503,163.278938 67.6497781,163.008506 67.7514793,162.754253 C67.9132769,162.322023 68.1675296,161.899038 68.5142379,161.482988 C68.8655692,161.066938 69.3810095,160.586169 70.051313,160.038369 C71.0821929,159.190089 71.7779219,158.519786 72.1431213,158.027459 C72.5129438,157.525888 72.697855,157.056675 72.697855,156.617511 C72.697855,156.148299 72.5291237,155.755362 72.2009059,155.438702 C71.8680657,155.122041 71.4381473,154.964867 70.9065272,154.964867 C70.3333024,154.964867 69.8802698,155.133598 69.5428071,155.473373 C69.2099669,155.813147 69.0389237,156.277737 69.0343012,156.871764 L67.8323781,156.744638 C67.9155882,155.85013 68.2253142,155.168269 68.7569343,154.699057 C69.2931769,154.229845 70.0189533,153.994083 70.9296414,153.994083 C71.8357065,153.994083 72.5591716,154.248336 73.0907917,154.756841 C73.6270343,155.265348 73.8997781,155.894046 73.8997781,156.640625 C73.8997781,157.017382 73.8188793,157.391827 73.6570822,157.76165 C73.4999077,158.131472 73.2433432,158.519786 72.8827663,158.928902 C72.5175669,159.338018 71.9166047,159.895063 71.0798817,160.60466 C70.3772189,161.198687 69.9264976,161.598557 69.7277183,161.806583 C69.524316,162.014608 69.3625183,162.227256 69.242326,162.442215 L73.9113349,162.442215 Z" id="Shape"></path>
                <path d="M75.5038828,153.605769 C75.5038828,151.502404 76.070174,149.856693 77.202755,148.659393 C78.3353367,147.466716 79.7961355,146.868066 81.594397,146.868066 C82.7639609,146.868066 83.817955,147.152367 84.7610024,147.711723 C85.7086722,148.266457 86.4275148,149.050018 86.9221527,150.057785 C87.4121669,151.060928 87.6617976,152.195821 87.6617976,153.467086 C87.6617976,154.756841 87.3982988,155.905603 86.8759243,156.922615 C86.3581728,157.939627 85.6208396,158.711631 84.6685467,159.234005 C83.7116308,159.758691 82.6830621,160.019878 81.5828402,160.019878 C80.3855396,160.019878 79.3176775,159.730954 78.3700071,159.153107 C77.4269598,158.575259 76.7173633,157.787075 76.231971,156.783931 C75.7465793,155.783099 75.5038828,154.724482 75.5038828,153.605769 Z M77.237426,153.64044 C77.237426,155.165958 77.646542,156.374815 78.4740201,157.257766 C79.2968751,158.136095 80.327755,158.575259 81.5712834,158.575259 C82.8425479,158.575259 83.8849852,158.133783 84.7032178,157.246209 C85.5168272,156.354012 85.9282544,155.089682 85.9282544,153.455529 C85.9282544,152.424649 85.7479657,151.523207 85.3966343,150.751202 C85.049926,149.974575 84.5344858,149.373613 83.8595598,148.948317 C83.1892568,148.525333 82.4380544,148.312685 81.6059538,148.312685 C80.4086538,148.312685 79.3800852,148.724112 78.5202479,149.537722 C77.6650331,150.355954 77.237426,151.721986 77.237426,153.64044 Z" id="Shape"></path>
                <polygon id="Shape" points="89.8807325 159.800296 89.8807325 147.087648 91.5680473 147.087648 91.5680473 152.311391 98.1670675 152.311391 98.1670675 147.087648 99.8543822 147.087648 99.8543822 159.800296 98.1670675 159.800296 98.1670675 153.813794 91.5680473 153.813794 91.5680473 159.800296"></polygon>
                <polygon id="Shape" points="48.6686391 145.192308 47.4112426 145.192308 47.4112426 124.593195 48.0399408 123.964497 48.6686391 124.593195"></polygon>
                <path d="M39.5085982,9.80029586 L38.0870935,9.80029586 L38.0870935,4.44942663 C37.5600959,4.93481893 36.9498888,5.29308402 36.2495379,5.52422367 L36.2495379,4.22984497 C36.6193604,4.11427515 37.0192308,3.88775858 37.4514609,3.54798462 C37.8906249,3.2105213 38.1911059,2.81527337 38.352903,2.35761834 L39.5085982,2.35761834 L39.5085982,9.80029586 Z" id="Shape"></path>
                <path d="M44.6213941,38.0316201 L44.6213941,39.3491124 L39.6403479,39.3491124 C39.6911982,38.8498521 39.8529953,38.3760172 40.1257396,37.9276071 C40.3938609,37.4815089 40.9301036,36.8874817 41.7321562,36.1478367 C42.3701,35.5561207 42.7630361,35.1516272 42.9109651,34.9343562 C43.1028107,34.6431213 43.1998888,34.3541976 43.1998888,34.0675852 C43.1998888,33.7532361 43.1120562,33.5105396 42.9456361,33.339497 C42.7745929,33.1730769 42.5411426,33.0852438 42.2406621,33.0852438 C41.9401811,33.0852438 41.6997964,33.1753882 41.5241308,33.3510538 C41.3530882,33.5290308 41.2536982,33.8248888 41.2236503,34.2409396 L39.8137018,34.1022556 C39.8969118,33.3163834 40.1604107,32.7570266 40.5995746,32.4149408 C41.0456734,32.0774781 41.6050296,31.9064349 42.2753325,31.9064349 C43.0057325,31.9064349 43.5812686,32.102903 43.9973189,32.4958396 C44.4133692,32.8887757 44.6213941,33.3811018 44.6213941,33.9635728 C44.6213941,34.305658 44.558987,34.6223189 44.4364828,34.9227994 C44.3209136,35.2232805 44.1360024,35.5399408 43.8817491,35.8704698 C43.7037722,36.0877402 43.3894231,36.4020893 42.9456361,36.8181396 C42.497226,37.2272556 42.2106142,37.5 42.0904213,37.6386834 C41.9748521,37.7727444 41.877774,37.9021822 41.8014976,38.0316201 L44.6213941,38.0316201 Z" id="Shape"></path>
                <path d="M41.2583207,61.5338391 L42.6335982,61.3604846 C42.6705805,61.7164385 42.7861503,61.9845598 42.9803071,62.169471 C43.1721527,62.3543822 43.4079142,62.4468379 43.6852811,62.4468379 C43.976516,62.4468379 44.2215237,62.3382024 44.424926,62.1116864 C44.6237053,61.8897929 44.7254071,61.5893124 44.7254071,61.2102438 C44.7254071,60.8589124 44.6283284,60.5746118 44.4364828,60.3665864 C44.242326,60.1585615 44.0088757,60.0545491 43.7315089,60.0545491 C43.5465976,60.0545491 43.3293266,60.0892195 43.0843195,60.1585615 L43.2345598,59.0028663 C43.6182509,59.0121118 43.9117976,58.9265905 44.1128882,58.748613 C44.3209136,58.5729473 44.424926,58.339497 44.424926,58.0436391 C44.424926,57.798632 44.3463385,57.6021633 44.193787,57.4542343 C44.045858,57.3016828 43.8493899,57.2230953 43.6043822,57.2230953 C43.3639976,57.2230953 43.1559728,57.3086166 42.9803071,57.4773485 C42.8092639,57.6483911 42.7052515,57.8933988 42.6682692,58.2169935 L41.3623337,57.9974112 C41.4547893,57.5443787 41.5865385,57.186113 41.7668272,56.9226148 C41.9517385,56.6544935 42.2083024,56.4441568 42.5411426,56.2869822 C42.8716716,56.1344308 43.2414941,56.0558432 43.6506101,56.0558432 C44.3440272,56.0558432 44.9010722,56.2823598 45.326368,56.7261467 C45.6730769,57.0913462 45.8464314,57.4981509 45.8464314,57.9511834 C45.8464314,58.6076183 45.4904769,59.1276811 44.7831917,59.5113722 C45.2061763,59.6038278 45.5459503,59.8095414 45.8002036,60.1238905 C46.0544562,60.4428627 46.1815828,60.8219302 46.1815828,61.268029 C46.1815828,61.9244639 45.9411982,62.4815089 45.4650521,62.943787 C44.9842828,63.4014426 44.3971893,63.6256473 43.6968379,63.6256473 C43.0265349,63.6256473 42.4648669,63.4338018 42.0210799,63.0477994 C41.581916,62.6641089 41.3276627,62.1579142 41.2583207,61.5338391 Z" id="Shape"></path>
                <path d="M44.0897746,93.0473373 L44.0897746,91.5564905 L41.0618527,91.5564905 L41.0618527,90.3083396 L44.2746858,85.6046598 L45.4650521,85.6046598 L45.4650521,90.3083396 L46.3896083,90.3083396 L46.3896083,91.5564905 L45.4650521,91.5564905 L45.4650521,93.0473373 L44.0897746,93.0473373 Z M44.0897746,90.3083396 L44.0897746,87.7773669 L42.3909024,90.3083396 L44.0897746,90.3083396 Z" id="Shape"></path>
                <path d="M41.3276627,120.208488 L42.7376107,120.058247 C42.7838391,120.381841 42.9017195,120.636095 43.0958763,120.821006 C43.2946562,121.005917 43.5257953,121.098373 43.7892935,121.098373 C44.080529,121.098373 44.3324704,120.980492 44.5404959,120.740107 C44.7485207,120.502034 44.8525331,120.139146 44.8525331,119.653754 C44.8525331,119.200721 44.7485207,118.860947 44.5404959,118.636742 C44.3370935,118.405603 44.0735947,118.290033 43.7430657,118.290033 C43.3339497,118.290033 42.9687503,118.472633 42.645155,118.83321 L41.5010172,118.659856 L42.2291053,114.799834 L45.9851148,114.799834 L45.9851148,116.128883 L43.3039018,116.128883 L43.0843195,117.388591 C43.3986686,117.236039 43.7222633,117.157452 44.0551036,117.157452 C44.6791787,117.157452 45.2107988,117.388591 45.6499633,117.850869 C46.0891272,118.306213 46.3087095,118.90024 46.3087095,119.63064 C46.3087095,120.240847 46.1307325,120.784024 45.7770893,121.26017 C45.298632,121.916605 44.6329515,122.242511 43.7777367,122.242511 C43.088942,122.242511 42.531897,122.064534 42.1019787,121.699334 C41.6697485,121.329512 41.4108728,120.832563 41.3276627,120.208488 Z" id="Shape"></path>
                <path d="M40.2066385,151.987796 L38.8313609,152.138036 C38.7897562,151.853735 38.6973006,151.64571 38.5539941,151.513961 C38.4153107,151.375278 38.2327107,151.305936 38.0108172,151.305936 C37.7103367,151.305936 37.4560834,151.442308 37.2480586,151.710429 C37.0400331,151.983173 36.908284,152.54253 36.8551219,153.397744 C37.2087645,152.977071 37.6525515,152.762112 38.1841716,152.762112 C38.7758876,152.762112 39.2820822,152.99094 39.6981325,153.443972 C40.1211172,153.901627 40.3337645,154.481786 40.3337645,155.189072 C40.3337645,155.951831 40.1072485,156.564349 39.6634615,157.026627 C39.224297,157.484283 38.6510722,157.708488 37.9530325,157.708488 C37.204142,157.708488 36.5893124,157.419563 36.1039201,156.841716 C35.6231509,156.259246 35.3873893,155.30233 35.3873893,153.975592 C35.3873893,152.621117 35.6370189,151.641088 36.1385911,151.040125 C36.6378515,150.439164 37.2942864,150.138683 38.1032728,150.138683 C38.6649408,150.138683 39.1272189,150.298169 39.4901071,150.612518 C39.8599296,150.929179 40.098003,151.386834 40.2066385,151.987796 Z M36.9822485,155.085059 C36.9822485,155.547337 37.0862609,155.905603 37.2942864,156.159856 C37.5092456,156.407175 37.7496302,156.529678 38.022374,156.529678 C38.2904959,156.529678 38.5100775,156.430289 38.6811207,156.229198 C38.8567864,156.021172 38.9469302,155.683709 38.9469302,155.212186 C38.9469302,154.726793 38.8498521,154.373151 38.6580065,154.148946 C38.4730953,153.927053 38.2350225,153.813794 37.9530325,153.813794 C37.6802888,153.813794 37.4491491,153.924741 37.2596154,154.137389 C37.0747041,154.35466 36.9822485,154.669009 36.9822485,155.085059 Z" id="Shape"></path>
            </g>
        </g>
    </g>
</svg>